<?xml version="1.0" encoding="utf-8"?>
<!DOCTYPE svg PUBLIC "-//W3C//DTD SVG 1.1//EN" "http://www.w3.org/Graphics/SVG/1.1/DTD/svg11.dtd">
<svg version="1.1" id="图层_1" xmlns="http://www.w3.org/2000/svg" xmlns:xlink="http://www.w3.org/1999/xlink" x="0px" y="0px"
	 width="450px" height="450px" viewBox="0 0 450 450" enable-background="new 0 0 450 450" xml:space="preserve">
<path fill="#FFFFFF" d="M228.968,232.498c0.353-0.707,0.532-1.33,0.532-1.863c-0.358-2.661-1.863-4.166-4.524-4.524
	c-1.775,0.179-3.106,0.977-3.991,2.395l-5.588,9.579c0,0.175-0.091,0.441-0.266,0.798c-0.175,0.885-0.266,1.505-0.266,1.863
	c0.179,2.836,1.597,4.345,4.257,4.524c1.597-0.179,2.836-0.89,3.725-2.129l5.854-9.845
	C228.702,233.122,228.789,232.856,228.968,232.498L228.968,232.498z M224.178,215.734c3.193-0.353,4.964-2.129,5.322-5.322
	c-0.358-3.193-2.129-4.964-5.322-5.322c-3.193,0.358-4.968,2.129-5.322,5.322C219.21,213.605,220.985,215.381,224.178,215.734
	L224.178,215.734z"/>
<path fill="#FFFFFF" d="M240.144,245.802c3.725-4.615,6.029-14.103,6.918-28.472c-0.532-11.883-2.395-21.021-5.588-27.407
	c-0.89-1.597-2.041-2.395-3.459-2.395c-2.84,0.179-4.349,1.597-4.524,4.257c0.353,1.597,0.973,3.372,1.863,5.322
	c1.95,5.854,2.927,12.598,2.927,20.223c0,7.808-1.156,14.814-3.459,21.021c0,0.175-0.091,0.441-0.266,0.798
	c-0.711,1.95-1.064,3.193-1.064,3.725c0.175,2.303,1.684,3.546,4.524,3.725C238.901,246.601,239.612,246.335,240.144,245.802
	L240.144,245.802z"/>
<path fill="#FFFFFF" d="M231.616,423.822c18.292-6.659,24.607-19.312,18.969-37.968l-23.32-63.99l42.682-15.538
	c59.5-26.245,80.716-69.076,63.69-128.454c-25.172-56.413-69.495-75.357-132.953-56.866l-70.121,25.527
	c-17.919,7.683-23.885,21.368-17.858,41.015l79.954,219.393C200.322,424.861,213.324,430.482,231.616,423.822L231.616,423.822z
	 M218.037,173.363c25.763-8.22,43.98,0.68,54.625,26.708c7.209,26.146-0.99,44.662-24.642,55.565l-39.634,14.429l-29.983-82.272
	L218.037,173.363z"/>
<path fill-rule="evenodd" clip-rule="evenodd" fill="#FFFFFF" d="M225,0C100.736,0,0,100.736,0,225s100.736,225,225,225
	s225-100.736,225-225S349.264,0,225,0z M225,400c-96.65,0-175-78.35-175-175S128.35,50,225,50s175,78.35,175,175S321.65,400,225,400
	z"/>
</svg>
